<?xml version="1.0" standalone="no"?><!DOCTYPE svg PUBLIC "-//W3C//DTD SVG 1.1//EN" "http://www.w3.org/Graphics/SVG/1.1/DTD/svg11.dtd"><svg class="icon" width="128px" height="128.00px" viewBox="0 0 1000 1000" version="1.1" xmlns="http://www.w3.org/2000/svg"><path d="M500 0C223.8457 0 0 223.8457 0 500s223.8457 500 500 500 500-223.8457 500-500S776.1543 0 500 0zM500 921.875c-233.002 0-421.875-188.873-421.875-421.875S266.998 78.125 500 78.125s421.875 188.873 421.875 421.875S733.002 921.875 500 921.875zM718.293 437.2559l-0.2129-62.7754-27.4043-15.625L499.3906 250l-190.7656 109.7422L281.25 375.5195l0.1523 62.1641 0.457 187.8047 163.2695 92.957L473.1133 734.375l26.9766 15.3203 0.5195 0.3047 54.8086-31.5254L718.75 624.4805 718.293 437.2559zM499.5723 312.8047l136.3516 77.5762-136.0176 78.2461-136.3828-77.6055L499.5723 312.8047zM336.6094 593.9629l-0.3965-155.793 135.834 77.3008 0.4277 155.8223L336.6094 593.9629zM527.8008 671.4473 527.4355 515.625l135.9551-78.2461 0.4883 155.8828L527.8008 671.4473z" /></svg>